<svg version="1.1" id="Layer_1" xmlns="http://www.w3.org/2000/svg" xmlns:xlink="http://www.w3.org/1999/xlink" x="0px" y="0px"
	 width="100%" viewBox="0 0 309 131" enable-background="new 0 0 309 131" xml:space="preserve">
<path fill="#FEFEFE" opacity="1.000000" stroke="none" 
	d="
M202.000000,132.000000 
	C134.666672,132.000000 67.833351,132.000000 1.000018,132.000000 
	C1.000012,88.333344 1.000012,44.666695 1.000006,1.000030 
	C103.999969,1.000020 206.999939,1.000020 309.999939,1.000010 
	C309.999939,44.666637 309.999939,88.333275 309.999969,131.999954 
	C274.166656,132.000000 238.333328,132.000000 202.000000,132.000000 
M118.659264,82.037865 
	C119.144913,81.975777 119.630554,81.913689 121.014748,81.996643 
	C124.457352,81.996643 127.899963,81.996643 131.956161,81.996643 
	C131.956161,72.786392 131.956161,64.029503 131.956161,55.272617 
	C137.147110,63.346832 141.695068,71.402344 145.811523,79.672630 
	C147.532547,83.130310 150.274750,82.010902 152.629333,81.857674 
	C153.999557,81.768501 155.840836,80.470818 156.487152,79.212143 
	C158.892639,74.527657 160.891037,69.634140 163.393860,64.032066 
	C165.822754,69.441322 167.984543,74.021973 169.930115,78.692696 
	C170.828079,80.848442 171.718307,82.385002 174.499268,82.065544 
	C177.180832,81.757515 179.767838,82.558060 181.395798,78.967308 
	C184.193527,72.796379 187.758499,66.973305 191.512421,61.010796 
	C191.682632,61.004021 191.852829,60.997246 192.330338,61.791790 
	C191.718796,70.025627 194.693054,76.720215 202.034271,80.497131 
	C211.949127,85.598137 221.123825,83.372833 229.489716,75.262611 
	C229.623871,77.929474 229.719391,79.828156 229.844940,82.323997 
	C234.221542,80.741684 239.332581,84.716873 242.548462,79.218483 
	C252.535141,85.762779 261.926025,83.878090 268.730865,74.265442 
	C269.470062,75.895485 270.065582,77.611176 270.976501,79.138817 
	C273.304932,83.043747 278.024750,84.172752 281.737000,81.844833 
	C285.406586,79.543686 286.518555,74.566559 284.166443,70.970619 
	C281.775299,67.314995 277.003387,66.372864 273.262543,68.811630 
	C272.067444,69.590767 270.861237,70.352943 269.840515,70.300926 
	C270.057617,68.821510 270.362762,67.348915 270.477936,65.861618 
	C271.410614,53.813381 262.051056,44.458210 250.548035,46.176689 
	C247.703369,46.601658 245.005157,48.006836 241.666977,49.159088 
	C241.666977,40.535927 241.666977,32.030819 241.666977,23.579208 
	C237.356522,23.579208 233.644821,23.579208 229.922821,23.579208 
	C229.922821,34.220009 229.922821,44.498363 229.475464,55.422832 
	C228.979874,55.293228 228.484299,55.163624 227.927643,54.344353 
	C220.705154,44.292973 208.947601,43.066021 197.353531,51.064770 
	C196.912689,51.014641 196.471863,50.964512 196.251587,50.209236 
	C196.850128,49.337273 197.448669,48.465309 198.462433,46.988438 
	C194.923035,46.988438 192.113220,47.259468 189.378403,46.922268 
	C185.662704,46.464138 183.724808,47.765450 182.423889,51.339542 
	C180.725037,56.006836 178.338943,60.423981 175.897842,65.707855 
	C173.798401,60.975418 172.188644,57.334511 170.568832,53.698090 
	C167.400467,46.585255 167.398132,46.586296 159.183624,47.258202 
	C156.491272,53.191051 153.777725,59.170597 150.788040,65.758636 
	C148.169479,59.939808 146.032440,54.902561 143.609146,50.007000 
	C142.996658,48.769619 141.502899,47.170971 140.358749,47.125313 
	C133.571350,46.854481 126.767654,46.991619 119.668961,46.991619 
	C119.668961,49.828445 119.668961,52.294319 119.113144,54.857620 
	C118.760567,54.888371 118.407982,54.919117 117.902931,54.267933 
	C114.666260,46.335564 102.827888,42.925083 93.887726,49.508240 
	C90.310532,44.585659 85.461052,48.171566 81.336418,46.858429 
	C81.336418,58.938980 81.336418,70.338654 81.336418,81.735382 
	C85.367271,81.735382 89.114662,81.735382 93.108398,81.735382 
	C93.108398,75.665405 93.065643,69.859650 93.121307,64.054840 
	C93.169815,58.995380 96.050827,55.511757 100.153160,55.387691 
	C104.113487,55.267921 106.597054,58.330433 106.676956,63.713280 
	C106.765343,69.667206 106.697151,75.623466 106.697151,81.919647 
	C110.682930,81.919647 114.308495,81.919647 118.659264,82.037865 
M41.943245,65.356873 
	C42.157825,77.911339 46.986500,82.807549 59.566139,82.958946 
	C62.533127,82.994659 65.536011,82.654381 68.471436,82.175095 
	C75.059151,81.099487 79.068054,76.995743 79.499832,70.485306 
	C80.011635,62.768360 79.620140,54.991501 79.620140,47.262978 
	C75.586967,47.262978 71.838989,47.262978 67.771698,47.262978 
	C67.771698,53.498112 67.947739,59.471420 67.705490,65.427711 
	C67.560799,68.985291 66.781601,72.493843 62.165966,73.059845 
	C57.042484,73.688126 54.301266,71.332817 54.100605,65.495544 
	C53.891357,59.408527 54.053913,53.308727 54.053913,47.250336 
	C49.700348,47.250336 45.955929,47.250336 41.942898,47.250336 
	C41.942898,53.134514 41.942898,58.764320 41.943245,65.356873 
M119.350266,29.369373 
	C119.974609,32.219666 119.918785,35.551655 121.471672,37.744358 
	C122.444214,39.117619 126.329956,39.780685 128.019623,38.951336 
	C130.140549,37.910297 132.637604,35.002232 132.615372,32.925144 
	C132.590164,30.569735 130.464066,27.449215 128.337982,26.089600 
	C125.195999,24.080313 122.019150,25.695078 119.350266,29.369373 
z"/>
<path fill="#050505" opacity="1.000000" stroke="none" 
	d="
M268.037323,74.103020 
	C261.926025,83.878090 252.535141,85.762779 242.548492,79.218689 
	C239.332581,84.716873 234.221542,80.741684 229.844940,82.323997 
	C229.719391,79.828156 229.623871,77.929474 229.489716,75.262611 
	C221.123825,83.372833 211.949127,85.598137 202.034271,80.497131 
	C194.693054,76.720215 191.718796,70.025627 192.487488,61.226707 
	C194.430344,57.514904 196.216049,54.368179 198.001740,51.221455 
	C208.947601,43.066021 220.705154,44.292973 227.990875,55.018173 
	C228.517273,56.527550 228.980438,57.363098 229.922821,59.063122 
	C229.922821,56.926437 229.922821,55.851578 229.922821,54.776718 
	C229.922821,44.498363 229.922821,34.220009 229.922821,23.579208 
	C233.644821,23.579208 237.356522,23.579208 241.666977,23.579208 
	C241.666977,32.030819 241.666977,40.535927 241.666977,49.159088 
	C245.005157,48.006836 247.703369,46.601658 250.548035,46.176689 
	C262.051056,44.458210 271.410614,53.813381 270.477936,65.861618 
	C270.362762,67.348915 270.057617,68.821510 269.492889,70.867889 
	C268.775940,72.324242 268.406647,73.213631 268.037323,74.103020 
M241.563751,65.991646 
	C242.380783,70.399712 245.242065,72.628166 249.512985,72.717278 
	C253.072845,72.791557 256.461365,71.252457 256.981079,67.535004 
	C257.371277,64.744141 256.968140,60.850597 255.245407,59.036472 
	C253.540161,57.240734 249.601181,56.547165 246.887802,56.965290 
	C242.761673,57.601109 241.370407,61.227596 241.563751,65.991646 
M212.638641,73.358704 
	C213.626602,73.263443 214.924942,73.539024 215.552780,73.013527 
	C220.063202,69.238312 224.425491,70.654312 228.838577,73.086548 
	C228.938217,73.141464 229.146820,72.998703 229.356293,72.931587 
	C229.356293,70.745255 229.356293,68.548302 229.356293,66.213226 
	C221.093140,66.213226 213.174728,66.213226 205.077423,66.213226 
	C204.999557,70.945290 207.762360,72.716537 212.638641,73.358704 
M214.043732,54.015087 
	C209.819260,53.411297 206.446640,54.171188 205.176285,59.151047 
	C209.881668,59.151047 214.013550,59.151047 219.628433,59.151047 
	C217.401749,56.882103 216.117584,55.573559 214.043732,54.015087 
M229.516022,74.549828 
	C229.516022,74.549828 229.532166,74.482460 229.516022,74.549828 
z"/>
<path fill="#050505" opacity="1.000000" stroke="none" 
	d="
M119.668961,54.760193 
	C119.668961,52.294319 119.668961,49.828445 119.668961,46.991619 
	C126.767654,46.991619 133.571350,46.854481 140.358749,47.125313 
	C141.502899,47.170971 142.996658,48.769619 143.609146,50.007000 
	C146.032440,54.902561 148.169479,59.939808 150.788040,65.758636 
	C153.777725,59.170597 156.491272,53.191051 159.183624,47.258202 
	C167.398132,46.586296 167.400467,46.585255 170.568832,53.698090 
	C172.188644,57.334511 173.798401,60.975418 175.897842,65.707855 
	C178.338943,60.423981 180.725037,56.006836 182.423889,51.339542 
	C183.724808,47.765450 185.662704,46.464138 189.378403,46.922268 
	C192.113220,47.259468 194.923035,46.988438 198.462433,46.988438 
	C197.448669,48.465309 196.850128,49.337273 196.084854,50.908272 
	C194.279221,54.739613 192.640320,57.871914 191.001404,61.004211 
	C187.758499,66.973305 184.193527,72.796379 181.395798,78.967308 
	C179.767838,82.558060 177.180832,81.757515 174.499268,82.065544 
	C171.718307,82.385002 170.828079,80.848442 169.930115,78.692696 
	C167.984543,74.021973 165.822754,69.441322 163.393860,64.032066 
	C160.891037,69.634140 158.892639,74.527657 156.487152,79.212143 
	C155.840836,80.470818 153.999557,81.768501 152.629333,81.857674 
	C150.274750,82.010902 147.532547,83.130310 145.811523,79.672630 
	C141.695068,71.402344 137.147110,63.346832 131.956161,55.272617 
	C131.956161,64.029503 131.956161,72.786392 131.956161,81.996643 
	C127.899963,81.996643 124.457352,81.996643 120.548477,81.465302 
	C119.944450,72.209373 119.806702,63.484783 119.668961,54.760193 
z"/>
<path fill="#040404" opacity="1.000000" stroke="none" 
	d="
M41.943069,64.875504 
	C41.942898,58.764320 41.942898,53.134514 41.942898,47.250336 
	C45.955929,47.250336 49.700348,47.250336 54.053913,47.250336 
	C54.053913,53.308727 53.891357,59.408527 54.100605,65.495544 
	C54.301266,71.332817 57.042484,73.688126 62.165966,73.059845 
	C66.781601,72.493843 67.560799,68.985291 67.705490,65.427711 
	C67.947739,59.471420 67.771698,53.498112 67.771698,47.262978 
	C71.838989,47.262978 75.586967,47.262978 79.620140,47.262978 
	C79.620140,54.991501 80.011635,62.768360 79.499832,70.485306 
	C79.068054,76.995743 75.059151,81.099487 68.471436,82.175095 
	C65.536011,82.654381 62.533127,82.994659 59.566139,82.958946 
	C46.986500,82.807549 42.157825,77.911339 41.943069,64.875504 
z"/>
<path fill="#030303" opacity="1.000000" stroke="none" 
	d="
M117.934059,81.919647 
	C114.308495,81.919647 110.682930,81.919647 106.697151,81.919647 
	C106.697151,75.623466 106.765343,69.667206 106.676956,63.713280 
	C106.597054,58.330433 104.113487,55.267921 100.153160,55.387691 
	C96.050827,55.511757 93.169815,58.995380 93.121307,64.054840 
	C93.065643,69.859650 93.108398,75.665405 93.108398,81.735382 
	C89.114662,81.735382 85.367271,81.735382 81.336418,81.735382 
	C81.336418,70.338654 81.336418,58.938980 81.336418,46.858429 
	C85.461052,48.171566 90.310532,44.585659 93.887726,49.508240 
	C102.827888,42.925083 114.666260,46.335564 117.920372,55.078217 
	C117.936562,64.565552 117.935310,73.242599 117.934059,81.919647 
z"/>
<path fill="#080808" opacity="1.000000" stroke="none" 
	d="
M268.384094,74.184235 
	C268.406647,73.213631 268.775940,72.324242 269.402710,71.278870 
	C270.861237,70.352943 272.067444,69.590767 273.262543,68.811630 
	C277.003387,66.372864 281.775299,67.314995 284.166443,70.970619 
	C286.518555,74.566559 285.406586,79.543686 281.737000,81.844833 
	C278.024750,84.172752 273.304932,83.043747 270.976501,79.138817 
	C270.065582,77.611176 269.470062,75.895485 268.384094,74.184235 
z"/>
<path fill="#0B0B0B" opacity="1.000000" stroke="none" 
	d="
M119.585342,29.044630 
	C122.019150,25.695078 125.195999,24.080313 128.337982,26.089600 
	C130.464066,27.449215 132.590164,30.569735 132.615372,32.925144 
	C132.637604,35.002232 130.140549,37.910297 128.019623,38.951336 
	C126.329956,39.780685 122.444214,39.117619 121.471672,37.744358 
	C119.918785,35.551655 119.974609,32.219666 119.585342,29.044630 
z"/>
<path fill="#7D7D7D" opacity="1.000000" stroke="none" 
	d="
M118.296661,81.978760 
	C117.935310,73.242599 117.936562,64.565552 117.996613,55.419182 
	C118.407982,54.919117 118.760567,54.888371 119.391052,54.808907 
	C119.806702,63.484783 119.944450,72.209373 120.099197,81.392792 
	C119.630554,81.913689 119.144913,81.975777 118.296661,81.978760 
z"/>
<path fill="#060606" opacity="1.000000" stroke="none" 
	d="
M191.256927,61.007507 
	C192.640320,57.871914 194.279221,54.739613 195.974579,51.260849 
	C196.471863,50.964512 196.912689,51.014641 197.677643,51.143112 
	C196.216049,54.368179 194.430344,57.514904 192.333847,60.826050 
	C191.852829,60.997246 191.682632,61.004021 191.256927,61.007507 
z"/>
<path fill="#060606" opacity="1.000000" stroke="none" 
	d="
M229.699142,55.099777 
	C229.922821,55.851578 229.922821,56.926437 229.922821,59.063122 
	C228.980438,57.363098 228.517273,56.527550 228.021408,55.363007 
	C228.484299,55.163624 228.979874,55.293228 229.699142,55.099777 
z"/>
<path fill="#F5F5F5" opacity="1.000000" stroke="none" 
	d="
M241.492706,65.620949 
	C241.370407,61.227596 242.761673,57.601109 246.887802,56.965290 
	C249.601181,56.547165 253.540161,57.240734 255.245407,59.036472 
	C256.968140,60.850597 257.371277,64.744141 256.981079,67.535004 
	C256.461365,71.252457 253.072845,72.791557 249.512985,72.717278 
	C245.242065,72.628166 242.380783,70.399712 241.492706,65.620949 
z"/>
<path fill="#EFEFEF" opacity="1.000000" stroke="none" 
	d="
M212.210968,73.333694 
	C207.762360,72.716537 204.999557,70.945290 205.077423,66.213226 
	C213.174728,66.213226 221.093140,66.213226 229.356293,66.213226 
	C229.356293,68.548302 229.356293,70.745255 229.356293,72.931587 
	C229.146820,72.998703 228.938217,73.141464 228.838577,73.086548 
	C224.425491,70.654312 220.063202,69.238312 215.552780,73.013527 
	C214.924942,73.539024 213.626602,73.263443 212.210968,73.333694 
z"/>
<path fill="#DEDEDE" opacity="1.000000" stroke="none" 
	d="
M214.438568,54.140053 
	C216.117584,55.573559 217.401749,56.882103 219.628433,59.151047 
	C214.013550,59.151047 209.881668,59.151047 205.176285,59.151047 
	C206.446640,54.171188 209.819260,53.411297 214.438568,54.140053 
z"/>
<path fill="#FEFEFE" opacity="1.000000" stroke="none" 
	d="
M229.524094,74.516144 
	C229.532166,74.482460 229.516022,74.549828 229.524094,74.516144 
z"/>
</svg>
